HIERARCHY
ROOT Hips
{
	OFFSET 0.000000 0.000000 0.000000 
	CHANNELS 6 Xposition Yposition Zposition Zrotation Xrotation Yrotation
	JOINT Spine
	{
		OFFSET -0.000000 8.061080 0.000000 
		CHANNELS 3 Zrotation Xrotation Yrotation
		JOINT Spine1
		{
			OFFSET -0.000000 20.532677 0.000000 
			CHANNELS 3 Zrotation Xrotation Yrotation
			JOINT Neck
			{
				OFFSET -0.000000 22.498795 0.000000 
				CHANNELS 3 Zrotation Xrotation Yrotation
				JOINT Head
				{
					OFFSET -0.000000 15.237408 1.966117 
					CHANNELS 3 Zrotation Xrotation Yrotation
					End Site
					{
						OFFSET -0.000000 19.661171 0.000000 
					}
				}
			}
			JOINT LeftShoulder
			{
				OFFSET 3.894675 16.042269 -0.398189 
				CHANNELS 3 Zrotation Xrotation Yrotation
				JOINT LeftArm
				{
					OFFSET 19.709621 0.000000 0.000000 
					CHANNELS 3 Zrotation Xrotation Yrotation
					JOINT LeftForeArm
					{
						OFFSET 25.566900 0.000000 0.000000 
						CHANNELS 3 Zrotation Xrotation Yrotation
						JOINT LeftHand
						{
							OFFSET 25.401896 0.000000 0.000000 
							CHANNELS 3 Zrotation Xrotation Yrotation
							End Site
							{
								OFFSET 14.745877 0.000000 0.000000 
							}
						}
					}
				}
			}
			JOINT RightShoulder
			{
				OFFSET -3.930777 16.042269 -0.398189 
				CHANNELS 3 Zrotation Xrotation Yrotation
				JOINT RightArm
				{
					OFFSET -19.709621 0.000000 0.000000 
					CHANNELS 3 Zrotation Xrotation Yrotation
					JOINT RightForeArm
					{
						OFFSET -25.566900 0.000000 0.000000 
						CHANNELS 3 Zrotation Xrotation Yrotation
						JOINT RightHand
						{
							OFFSET -25.401896 0.000000 0.000000 
							CHANNELS 3 Zrotation Xrotation Yrotation
							End Site
							{
								OFFSET -14.745877 0.000000 0.000000 
							}
						}
					}
				}
			}
		}
	}
	JOINT LeftUpLeg
	{
		OFFSET 9.830585 0.000000 0.000000 
		CHANNELS 3 Zrotation Xrotation Yrotation
		JOINT LeftLeg
		{
			OFFSET -0.000000 -46.474842 0.000000 
			CHANNELS 3 Zrotation Xrotation Yrotation
			JOINT LeftFoot
			{
				OFFSET -0.000000 -30.290520 0.000000 
				CHANNELS 3 Zrotation Xrotation Yrotation
				JOINT LeftToeBase
				{
					OFFSET -0.000000 -6.389880 14.745877 
					CHANNELS 3 Zrotation Xrotation Yrotation
					End Site
					{
						OFFSET -0.000000 0.000000 3.932234 
					}
				}
			}
		}
	}
	JOINT RightUpLeg
	{
		OFFSET -9.830585 0.000000 0.000000 
		CHANNELS 3 Zrotation Xrotation Yrotation
		JOINT RightLeg
		{
			OFFSET -0.000000 -46.474842 0.000000 
			CHANNELS 3 Zrotation Xrotation Yrotation
			JOINT RightFoot
			{
				OFFSET -0.000000 -30.290520 0.000000 
				CHANNELS 3 Zrotation Xrotation Yrotation
				JOINT RightToeBase
				{
					OFFSET -0.000000 -6.389880 14.745877 
					CHANNELS 3 Zrotation Xrotation Yrotation
					End Site
					{
						OFFSET -0.000000 0.000000 3.932234 
					}
				}
			}
		}
	}
}
MOTION
Frames: 12
Frame Time: 0.010000
0.000000 84.783989 0.000000 -2.283731 4.302231 3.986933 2.236105 -7.798003 0.101221 1.291172 -1.796841 0.000554 2.924811 8.675207 -0.136307 2.002340 10.251155 0.039295 2.240339 9.309755 -0.827121 -70.351601 26.674812 -24.125059 -12.411841 0.750651 -3.233437 4.124474 0.669052 7.491020 -7.597836 9.505459 -9.771184 57.878151 51.767502 36.371281 6.542065 -8.678608 6.372534 -14.854609 -8.580653 -3.555542 3.819622 4.334970 7.695388 2.663928 -7.271671 4.361067 3.622937 2.954529 -0.972306 0.000000 0.000000 0.000000 -6.885984 -3.686408 7.372742 9.673547 3.994288 -15.816952 -7.366280 1.438365 -8.099000 0.000000 0.000000 0.000000 
0.003969 84.784164 0.010217 -2.285827 4.314568 3.973732 2.218433 -7.831296 0.090242 1.304592 -1.732186 -0.004096 2.951504 8.589602 -0.137666 1.975795 10.296427 0.046383 2.318576 9.401597 -0.653473 -70.404137 26.457613 -24.312309 -12.540422 0.892070 -3.204061 4.183964 0.814555 7.506644 -7.598314 9.509307 -9.784771 57.456558 52.107807 36.768501 6.460401 -8.887907 6.352215 -14.800974 -8.782821 -3.580603 3.813168 4.331474 7.696581 2.667198 -7.270719 4.391743 3.478425 2.915515 -0.830959 0.000000 0.000000 0.000000 -6.887880 -3.693922 7.385476 9.675006 3.991702 -15.823948 -7.357146 1.434844 -8.099547 0.000000 0.000000 0.000000 
0.008239 84.783730 0.020803 -2.281130 4.317929 3.963042 2.238632 -7.822270 0.117997 1.279735 -1.789791 0.004291 2.923174 8.682510 -0.142839 2.008588 10.243108 0.031254 2.239178 9.315057 -0.825754 -70.373619 26.627527 -24.102903 -12.410663 0.769683 -3.248754 4.125316 0.685969 7.469861 -7.592887 9.522413 -9.789351 57.817993 51.810009 36.428669 6.543015 -8.695488 6.365572 -14.798083 -8.597303 -3.568361 3.810817 4.347424 7.701115 2.568994 -7.301141 4.579163 3.766286 2.942048 -1.077106 0.000000 0.000000 0.000000 -6.891804 -3.691349 7.381531 9.673191 3.989501 -15.827033 -7.400353 1.437936 -8.064666 0.000000 0.000000 0.000000 
0.007445 84.787285 0.031487 -2.295808 4.324788 3.965873 2.191767 -7.952964 0.081888 1.328908 -1.578606 -0.007171 2.864622 8.499890 -0.122088 2.134475 10.385353 0.005954 2.321470 9.375366 -0.719371 -70.437164 26.397068 -24.306711 -12.512698 0.881887 -3.168199 4.154967 0.806719 7.496093 -7.577102 9.458359 -9.758119 57.372589 52.157108 36.812859 6.472526 -8.927103 6.337421 -14.753925 -8.822160 -3.589793 3.825035 4.335988 7.697569 2.654935 -7.270060 4.379244 3.476105 2.917315 -0.800012 0.000000 0.000000 0.000000 -6.863988 -3.644649 7.336010 9.648469 3.933409 -15.811320 -7.633101 1.444556 -7.795257 0.000000 0.000000 0.000000 
0.014735 84.784966 0.041655 -2.292353 4.298155 3.939818 2.210297 -7.866342 0.126976 1.347447 -1.678819 0.005816 2.953499 8.642029 -0.125113 1.903680 10.196005 0.078427 2.194178 9.261401 -0.877912 -70.386429 26.581190 -24.067579 -12.414520 0.767635 -3.241918 4.124209 0.684582 7.476996 -7.605702 9.485970 -9.799278 57.806629 51.794209 36.421329 6.593480 -8.673963 6.364343 -14.853924 -8.580998 -3.535346 3.817767 4.381767 7.698308 2.670106 -7.278756 4.390739 3.580514 2.930945 -0.955364 0.000000 0.000000 0.000000 -6.868056 -3.644459 7.373650 9.698349 4.099662 -15.312023 -7.972239 1.328535 -7.984478 0.000000 0.000000 0.000000 
0.017426 84.781578 0.049785 -2.285608 4.319061 3.929222 2.221322 -7.865467 0.127583 1.326133 -1.704587 0.007266 2.868990 8.625624 -0.127315 2.019905 10.252343 0.031836 2.194460 9.268532 -0.846032 -70.353317 26.618744 -24.096222 -12.417509 0.752207 -3.235014 4.410623 0.685868 7.409191 -7.615701 9.480494 -9.792331 57.844429 51.797768 36.387642 6.564445 -8.662827 6.371579 -14.811132 -8.568896 -3.543929 3.902562 4.484094 7.568780 2.399733 -7.531462 4.386455 3.752983 3.084495 -0.826978 0.000000 0.000000 0.000000 -6.890236 -3.680551 7.412740 9.672065 3.990332 -15.835979 -7.347353 1.424229 -8.093338 0.000000 0.000000 0.000000 
0.020574 84.780701 0.059036 -2.286477 4.322287 3.920954 2.274036 -7.913543 0.164189 1.183198 -1.597686 0.002783 3.015219 8.533174 -0.159024 1.961266 10.259744 0.039891 2.393750 9.221902 -0.838115 -70.511345 26.388857 -24.077793 -12.541821 0.894163 -3.236781 4.218540 0.814759 7.493509 -7.539509 9.448788 -9.836184 57.680279 51.939808 36.545448 6.537371 -8.745634 6.376819 -14.815844 -8.649078 -3.554018 3.808031 4.374238 7.716469 2.659852 -7.275240 4.402826 3.562611 2.896167 -0.953410 0.000000 0.000000 0.000000 -6.890306 -3.684598 7.401147 9.670950 4.004694 -15.814956 -7.367382 1.419713 -8.081675 0.000000 0.000000 0.000000 
0.021654 84.783203 0.069836 -2.303491 4.329410 3.928737 2.241048 -7.892877 0.061815 1.268293 -1.674680 -0.014993 2.827833 8.505658 -0.076237 2.150563 10.389701 0.042271 2.323441 9.420993 -0.626173 -70.372345 26.464340 -24.368740 -12.540917 0.867817 -3.146779 4.433083 0.810145 7.431571 -7.577239 9.484371 -9.741166 57.371464 52.211479 36.824768 6.478164 -8.912408 6.329840 -14.793618 -8.807859 -3.575971 3.827468 4.374715 7.692986 2.651973 -7.280453 4.428930 3.555259 2.890082 -0.955439 0.000000 0.000000 0.000000 -6.858551 -3.634802 7.340097 9.638515 3.946075 -15.789060 -7.611923 1.426429 -7.803565 0.000000 0.000000 0.000000 
0.027920 84.779518 0.077279 -2.287849 4.322802 3.908299 2.224144 -7.872721 0.125828 1.322970 -1.693695 0.004912 2.859918 8.610611 -0.099832 2.003716 10.245762 0.061604 2.189433 9.257605 -0.845136 -70.338783 26.640419 -24.108953 -12.422869 0.749787 -3.214792 4.390724 0.684254 7.410276 -7.610291 9.470939 -9.789762 57.792671 51.869831 36.420692 6.549323 -8.687134 6.367912 -14.874194 -8.586643 -3.571456 3.805506 4.394342 7.707600 2.652384 -7.286969 4.443109 3.546225 2.879120 -0.958724 0.000000 0.000000 0.000000 -6.888968 -3.675820 7.396225 9.666773 4.006653 -15.813046 -7.322300 1.410374 -8.107471 0.000000 0.000000 0.000000 
0.033085 84.777664 0.087840 -2.288296 4.328494 3.895968 2.233257 -7.888659 0.128869 1.311888 -1.680649 0.006267 2.850080 8.616633 -0.094830 2.009846 10.227803 0.063869 2.189671 9.253349 -0.843513 -70.342361 26.616684 -24.097481 -12.430855 0.764400 -3.219874 4.378494 0.697780 7.419685 -7.607790 9.469795 -9.796494 57.804291 51.853069 36.416214 6.562808 -8.682191 6.363081 -14.898713 -8.579867 -3.583193 3.891600 4.512484 7.585495 2.394824 -7.540327 4.451705 3.712174 3.032899 -0.848164 0.000000 0.000000 0.000000 -6.892554 -3.679207 7.397998 9.668801 4.012263 -15.800465 -7.332314 1.398142 -8.103312 0.000000 0.000000 0.000000 
0.033019 84.782028 0.097506 -2.299528 4.332286 3.908213 2.234483 -7.900077 0.057957 1.274945 -1.671955 -0.016800 2.799739 8.502188 -0.043385 2.154017 10.389214 0.069589 2.311084 9.417974 -0.623977 -70.357719 26.492594 -24.384373 -12.530135 0.850396 -3.122400 4.379739 0.792195 7.430811 -7.530547 9.569441 -9.751826 57.220352 52.182751 36.970280 6.476648 -8.925716 6.312802 -14.852958 -8.813485 -3.613204 3.816565 4.399866 7.709679 2.639490 -7.291790 4.467695 3.529170 2.864762 -0.969944 0.000000 0.000000 0.000000 -6.866113 -3.626594 7.336487 9.638544 3.957929 -15.768698 -7.615185 1.414467 -7.801648 0.000000 0.000000 0.000000 
0.038398 84.777786 0.106120 -2.290812 4.333304 3.882651 2.233928 -7.906845 0.127212 1.306530 -1.661090 0.003394 2.851316 8.610424 -0.080338 2.002945 10.224226 0.080502 2.196815 9.222700 -0.848925 -70.342522 26.654554 -24.089861 -12.420386 0.731582 -3.204366 4.357042 0.665270 7.411397 -7.623921 9.483786 -9.786767 57.865757 51.818932 36.387634 6.549136 -8.679995 6.355008 -14.916756 -8.574644 -3.592943 3.805095 4.411523 7.733511 2.630960 -7.290347 4.469776 3.524741 2.841090 -0.966035 0.000000 0.000000 0.000000 -6.891482 -3.676690 7.399760 9.671313 4.018525 -15.805606 -7.348656 1.395016 -8.083801 0.000000 0.000000 0.000000 
